<?xml version="1.0" encoding="UTF-8"?>
<svg id="Laag_1" xmlns="http://www.w3.org/2000/svg" viewBox="0 0 190.42 106.95">
  <defs>
    <style>
      .cls-1 {
        fill: #bcd145;
      }

      .cls-2 {
        font-size: 19.75px;
      }

      .cls-2, .cls-3 {
        fill: #40f4b3;
        font-family: ArialMT, Arial;
        isolation: isolate;
      }

      .cls-4 {
        letter-spacing: -.04em;
      }

      .cls-5 {
        fill: #46a186;
      }

      .cls-6 {
        fill: #70be8e;
      }

      .cls-3 {
        font-size: 7.98px;
      }

      .cls-7 {
        fill: #00915d;
      }

      .cls-8 {
        fill: #357a66;
      }

      .cls-9 {
        letter-spacing: 0em;
      }
    </style>
  </defs>
  <g>
    <path class="cls-5" d="M143.81,9.38c1.45-1.07,2.9-2.13,4.48-3.1,10.64-6.11,22.26-7.76,34.83-4.95,2.42.49,4.72,1.36,6.89,2.23.48.19.48.29.24.68-2.3,3.4-4.48,6.79-6.77,10.09-8.71,12.71-27.21,19.01-44.63,15.33-2.18-.49-4.35-1.07-6.41-1.94-1.69-.58-1.33-.68-.36-1.36,2.06-1.55,4.23-3.01,6.41-4.46,1.81-1.16,3.63-2.23,5.56-3.3.73-.39,1.33-.49,2.18,0,4.35,2.23,9.07,3.88,14.03,4.95.24,0,.36.1.6.1.48,0,.85,0,.97-.39s-.24-.58-.6-.68c-.12-.1-.36-.1-.48-.1-2.9-.68-5.81-1.46-8.59-2.52-1.57-.58-3.02-1.26-4.48-1.94-.85-.39-.85-.68,0-1.16,3.51-1.75,7.02-3.2,10.76-4.56.97-.29,1.81-.68,2.78-.97.48-.19.85-.1,1.21,0,1.09.49,2.18.97,3.27,1.46,3.14,1.26,6.53,1.94,10.04,2.23h.24c.48,0,.85-.1.85-.49s-.24-.49-.73-.58c-.48-.1-1.09-.1-1.57-.19-2.9-.39-5.68-.97-8.35-2.13-.48-.19-1.09-.39-1.57-.68-.48-.39-.48-.68.12-.87.85-.19,1.69-.49,2.54-.68,3.75-.97,7.5-1.75,11.37-2.33.24,0,.36-.1.6-.1.36-.1.73-.29.6-.68s-.48-.49-.85-.39c-.73.1-1.45.19-2.06.29-1.45.19-2.9.58-4.23.78-.24,0-.48.1-.73-.1-.24-.19-.12-.39.12-.58.6-.87,1.33-1.55,2.3-2.23.12-.1.36-.19.48-.39.12-.19.24-.39,0-.58-.24-.19-.48-.29-.73-.19-.24.1-.48.19-.6.29-1.45,1.07-2.66,2.23-3.39,3.78-.12.39-.36.68-.97.87-5.56,1.36-10.89,3.1-16.09,5.24-.12.1-.36.1-.48.19-.48.1-.73,0-.73-.39s.12-.68.24-1.07c.48-1.26,1.33-2.43,2.66-3.3.12-.1.36-.19.48-.39.6-.39.73-.78.36-.97-.24-.29-.73-.19-1.33.19-2.54,1.65-3.87,3.78-3.99,6.4,0,.49-.24.78-.85,1.07-5.68,2.62-11.01,5.63-15.97,9.12-1.09.78-2.06,1.55-3.02,2.23-.24.19-.48.39-.85.19-.24-.19-.12-.49,0-.68.97-2.23,1.81-4.46,2.3-6.69.48-1.84.73-3.78.97-5.72.24-3.59,0-7.28-.85-10.77,0-.19-.12-.49-.12-.68,0-.58.36-.97,1.09-1.07.6-.1,1.33.19,1.57.68.12.29.24.58.24.87,1.09,5.14,1.21,10.28.24,15.42-.24,1.46-.48,2.91-1.21,4.17.24-.58.6-1.16.97-1.84,1.33-1.94,2.54-3.88,3.99-5.72,1.33-1.65,2.9-3.2,4.6-4.66-.12-.19,0-.29.36-.29Z"/>
    <path class="cls-6" d="M137.42,16.01c-.6.74-1.27,1.4-1.87,2.21-.67.87-1.27,1.8-1.8,2.74-.74,1.34-1.47,2.67-2.21,4.01.07-.33.13-.74.27-1.07,1-4.34,1.07-8.76.27-13.17-.07-.47-.33-.67-.67-.6s-.53.33-.4.8c.27,1.34.4,2.61.47,3.94.2,3.94-.27,7.75-1.54,11.56-.13.4-.27.8-.4,1.2,0,.07-.07.07-.07,0-2.01-1.8-3.41-3.94-4.14-6.55-.8-2.87-.74-5.68.2-8.49.27-.94.67-1.8,1.14-2.61.94-1.74,1.87-3.48,2.81-5.21.07-.13.07-.33.33-.2,2.54,1.27,4.61,3.07,6.08,5.48,1.07,1.87,1.54,3.88,1.54,5.95Z"/>
  </g>
  <g>
    <path class="cls-5" d="M37.36,14.44c-1.16-1.01-2.33-2.02-3.59-2.94C25.24,5.79,15.93,4.23,5.85,6.9c-1.94.46-3.78,1.29-5.53,2.12-.39.18-.39.28-.19.64,1.84,3.22,3.59,6.44,5.43,9.57,6.98,11.96,21.82,18.03,35.78,14.44,1.75-.46,3.49-1.01,5.14-1.84,1.36-.55,1.07-.64.29-1.29-1.65-1.47-3.39-2.85-5.14-4.23-1.45-1.1-2.91-2.12-4.46-3.13-.58-.37-1.07-.46-1.75,0-3.49,2.12-7.27,3.68-11.25,4.69-.19,0-.29.09-.48.09-.39,0-.68,0-.78-.37-.1-.37.19-.55.48-.64.1-.09.29-.09.39-.09,2.33-.64,4.65-1.38,6.88-2.39,1.26-.55,2.42-1.2,3.59-1.84.68-.37.68-.64,0-1.1-2.81-1.66-5.62-3.04-8.63-4.32-.78-.28-1.45-.64-2.23-.92-.39-.18-.68-.09-.97,0-.87.46-1.75.92-2.62,1.38-2.52,1.2-5.24,1.84-8.05,2.12h-.19c-.39,0-.68-.09-.68-.46s.19-.46.58-.55c.39-.09.87-.09,1.26-.18,2.33-.37,4.56-.92,6.69-2.02.39-.18.87-.37,1.26-.64.39-.37.39-.64-.1-.83-.68-.18-1.36-.46-2.04-.64-3.01-.92-6.01-1.66-9.11-2.21-.19,0-.29-.09-.48-.09-.29-.09-.58-.28-.48-.64s.39-.46.68-.37c.58.09,1.16.18,1.65.28,1.16.18,2.33.55,3.39.74.19,0,.39.09.58-.09s.1-.37-.1-.55c-.48-.83-1.07-1.47-1.84-2.12-.1-.09-.29-.18-.39-.37-.1-.18-.19-.37,0-.55.19-.18.39-.28.58-.18.19.09.39.18.48.28,1.16,1.01,2.13,2.12,2.71,3.59.1.37.29.64.78.83,4.46,1.29,8.73,2.94,12.9,4.97.1.09.29.09.39.18.39.09.58,0,.58-.37s-.1-.64-.19-1.01c-.39-1.2-1.07-2.3-2.13-3.13-.1-.09-.29-.18-.39-.37-.48-.37-.58-.74-.29-.92.19-.28.58-.18,1.07.18,2.04,1.56,3.1,3.59,3.2,6.07,0,.46.19.74.68,1.01,4.56,2.48,8.82,5.33,12.8,8.65.87.74,1.65,1.47,2.42,2.12.19.18.39.37.68.18.19-.18.1-.46,0-.64-.78-2.12-1.45-4.23-1.84-6.35-.39-1.75-.58-3.59-.78-5.43-.19-3.4,0-6.9.68-10.21,0-.18.1-.46.1-.64,0-.55-.29-.92-.87-1.01-.48-.09-1.07.18-1.26.64-.1.28-.19.55-.19.83-.87,4.87-.97,9.75-.19,14.62.19,1.38.39,2.76.97,3.95-.19-.55-.48-1.1-.78-1.75-1.07-1.84-2.04-3.68-3.2-5.43-1.07-1.56-2.33-3.04-3.68-4.41.1-.18-.1-.28-.29-.28Z"/>
    <path class="cls-8" d="M129.21,28.09h-.07c-.79-.69-1.58-1.37-2.36-1.99-2.56-2.12-5.38-3.99-8.34-5.61-.2-.12-.33-.25-.33-.5-.07-1.74-.92-3.18-2.36-4.3-.26-.19-.53-.31-.85-.12s-.33.62.07.93c.66.5,1.18,1.06,1.58,1.81.2.37.33.75.39,1.12,0,.06.07.19,0,.25s-.2,0-.26-.06c-1.64-.81-3.35-1.49-5.06-2.18-1.18-.44-2.43-.81-3.68-1.18-.33-.06-.46-.25-.59-.56-.39-1.06-1.12-1.93-2.1-2.62-.2-.19-.46-.19-.72,0-.2.12-.26.31-.2.56.07.19.2.25.33.37.53.44.98.87,1.31,1.49.07.06.07.12.13.25-.33,0-.66-.12-.92-.19-.92-.19-1.84-.44-2.76-.56-.46-.06-.72.06-.79.37-.07.31.13.56.59.62,2.63.5,5.12,1.12,7.62,1.99.13.06.33.06.33.19s-.2.19-.26.25c-1.77.93-3.68,1.49-5.65,1.74-.13,0-.26,0-.39.06-.33.06-.53.31-.53.62.07.31.26.5.66.44.85-.06,1.71-.19,2.5-.37,1.71-.37,3.35-1.06,4.86-1.93.26-.19.53-.19.85-.06,2.5,1,4.92,2.12,7.22,3.49.33.19.33.25,0,.44-2.23,1.31-4.66,2.3-7.22,2.93-.46.12-.59.37-.53.69.07.31.39.44.85.31,1.71-.44,3.28-1,4.92-1.68,1.12-.5,2.23-1.06,3.28-1.74.2-.12.39-.06.53.06,1.05.69,2.17,1.43,3.15,2.18,1.25.93,2.43,1.93,3.61,2.93q.39.31-.07.56c-.33-.12-.39-.12-.39-.06h.13q.59-.19.92.37c.33.56.59,1.12.92,1.62.2.37.53.5.85.31.26-.12.33-.5.13-.81-.39-.69-.79-1.37-1.12-1.99-.13-.19-.26-.31-.2-.44Z"/>
  </g>
  <path class="cls-5" d="M135.12,69.53c-.54.8-1.05,1.65-1.48,2.56-.47,1.01-.86,2.08-1.28,3.15-.12.37-.23.69-.31,1.01.23-.69.31-1.49.39-2.29.31-2.83.27-5.65-.08-8.48,0-.16-.04-.32-.08-.48-.08-.27-.31-.43-.51-.37-.23.05-.35.27-.35.59,0,.11.04.27.04.37.27,1.92.35,3.95.27,5.92-.08,1.07-.16,2.13-.31,3.15-.16,1.23-.43,2.45-.74,3.68-.04.11-.08.27,0,.37.12.11.19,0,.27-.11.31-.37.62-.8.97-1.23,1.6-1.92,3.31-3.57,5.14-5.01.19-.16.27-.32.27-.59.04-1.44.47-2.61,1.28-3.52.19-.21.35-.27.43-.11.12.11.08.32-.12.53-.04.11-.12.16-.16.21-.43.48-.7,1.12-.86,1.81-.04.21-.08.37-.08.59s.08.27.23.21c.04-.05.12-.05.16-.11,1.67-1.17,3.38-2.13,5.17-2.88.19-.11.27-.27.31-.48.23-.85.62-1.49,1.09-2.08.04-.05.12-.11.19-.16.08-.05.16,0,.23.11.08.11.04.21,0,.32-.04.11-.12.16-.16.21-.31.37-.54.75-.74,1.23-.08.11-.12.21-.04.32s.16.05.23.05c.43-.11.89-.32,1.36-.43.19-.05.43-.11.66-.16.12-.05.23,0,.27.21s-.08.32-.19.37c-.08,0-.12.05-.19.05-1.24.32-2.45.75-3.66,1.28-.27.11-.54.27-.82.37-.19.11-.19.27-.04.48.16.16.35.27.51.37.86.64,1.75.96,2.68,1.17.16.05.35.05.51.11.16.05.23.11.23.32s-.12.27-.27.27h-.08c-1.13-.16-2.22-.53-3.23-1.23-.35-.27-.7-.53-1.05-.8-.12-.05-.23-.11-.39,0-.31.16-.58.37-.89.53-1.21.75-2.33,1.55-3.46,2.51-.27.27-.27.43,0,.64.47.37.93.75,1.44,1.07.89.59,1.83,1.01,2.76,1.39.04,0,.12,0,.16.05.12.05.23.16.19.37-.04.21-.16.21-.31.21-.08,0-.12-.05-.19-.05-1.6-.59-3.11-1.49-4.51-2.72-.27-.27-.47-.21-.7,0-.62.59-1.21,1.17-1.79,1.81-.7.8-1.4,1.6-2.06,2.45-.31.37-.43.43.12.75.66.48,1.36.8,2.06,1.07,5.6,2.08,11.55-1.44,14.36-8.37.74-1.81,1.44-3.68,2.18-5.55.08-.21.08-.27-.08-.37-.7-.48-1.44-.96-2.22-1.23-4.05-1.55-7.78-.64-11.2,2.67-.51.53-.97,1.12-1.44,1.71-.08,0-.16.05-.12.16Z"/>
  <path class="cls-5" d="M43.2,69.37c-.47-.59-.93-1.17-1.44-1.71-3.42-3.31-7.16-4.21-11.2-2.67-.78.27-1.52.75-2.22,1.23-.16.11-.16.16-.08.37.74,1.87,1.44,3.73,2.18,5.55,2.8,6.93,8.75,10.45,14.36,8.37.7-.27,1.4-.59,2.06-1.07.54-.32.43-.37.12-.75-.66-.85-1.36-1.65-2.06-2.45-.58-.64-1.17-1.23-1.79-1.81-.23-.21-.43-.27-.7,0-1.4,1.23-2.92,2.13-4.51,2.72-.08,0-.12.05-.19.05-.16,0-.27,0-.31-.21-.04-.21.08-.32.19-.37.04-.05.12-.05.16-.05.93-.37,1.87-.8,2.76-1.39.51-.32.97-.69,1.44-1.07.27-.21.27-.37,0-.64-1.13-.96-2.26-1.76-3.46-2.51-.31-.16-.58-.37-.89-.53-.16-.11-.27-.05-.39,0-.35.27-.7.53-1.05.8-1.01.69-2.1,1.07-3.23,1.23h-.08c-.16,0-.27-.05-.27-.27,0-.21.08-.27.23-.32.16-.05.35-.05.51-.11.93-.21,1.83-.53,2.68-1.17.16-.11.35-.21.51-.37.16-.21.16-.37-.04-.48-.27-.11-.54-.27-.82-.37-1.21-.53-2.41-.96-3.66-1.28-.08,0-.12-.05-.19-.05-.12-.05-.23-.16-.19-.37s.16-.27.27-.21c.23.05.47.11.66.16.47.11.93.32,1.36.43.08,0,.16.05.23-.05s.04-.21-.04-.32c-.19-.48-.43-.85-.74-1.23-.04-.05-.12-.11-.16-.21-.04-.11-.08-.21,0-.32.08-.11.16-.16.23-.11.08.05.16.11.19.16.47.59.86,1.23,1.09,2.08.04.21.12.37.31.48,1.79.75,3.5,1.71,5.17,2.88.04.05.12.05.16.11.16.05.23,0,.23-.21,0-.21-.04-.37-.08-.59-.16-.69-.43-1.33-.86-1.81-.04-.05-.12-.11-.16-.21-.19-.21-.23-.43-.12-.53.08-.16.23-.11.43.11.82.91,1.24,2.08,1.28,3.52,0,.27.08.43.27.59,1.83,1.44,3.54,3.09,5.14,5.01.35.43.66.85.97,1.23.08.11.16.21.27.11.08-.11.04-.27,0-.37-.31-1.23-.58-2.45-.74-3.68-.16-1.01-.23-2.08-.31-3.15-.08-1.97,0-4,.27-5.92,0-.11.04-.27.04-.37s-.12-.53-.35-.59c-.19-.05-.43.11-.51.37-.04.16-.08.32-.08.48-.35,2.83-.39,5.65-.08,8.48.08.8.16,1.6.39,2.29-.08-.32-.19-.64-.31-1.01-.43-1.07-.82-2.13-1.28-3.15-.43-.91-.93-1.76-1.48-2.56.04-.11-.04-.16-.12-.16Z"/>
  <polygon class="cls-7" points="47.64 30.53 47.64 79.54 89.29 106.82 89.29 46.39 47.64 30.53"/>
  <polygon class="cls-7" points="130.69 30.28 130.87 79.44 89.19 106.95 88.97 46.34 130.69 30.28"/>
  <text class="cls-2" transform="translate(64.91 69.4) scale(1.12 1)"><tspan x="0" y="0">ECO</tspan></text>
  <g>
    <text class="cls-3" transform="translate(64.8 82.3) scale(1.12 1)"><tspan class="cls-4" x="0" y="0">W</tspan><tspan class="cls-9" x="7.23" y="0">ARRIORS</tspan></text>
    <text class="cls-3" transform="translate(64.8 82.3) scale(1.12 1)"><tspan class="cls-4" x="0" y="0">W</tspan><tspan class="cls-9" x="7.23" y="0">ARRIORS</tspan></text>
  </g>
  <circle class="cls-1" cx="129.15" cy="31.41" r="2.41"/>
  <ellipse class="cls-1" cx="48.71" cy="32.14" rx="2.25" ry="2.41"/>
</svg>